<?xml version="1.0" standalone="no"?>
<!DOCTYPE svg PUBLIC "-//W3C//DTD SVG 20010904//EN"
 "http://www.w3.org/TR/2001/REC-SVG-20010904/DTD/svg10.dtd">
<svg version="1.0" xmlns="http://www.w3.org/2000/svg"
 width="260.000000pt" height="260.000000pt" viewBox="0 0 260.000000 260.000000"
 preserveAspectRatio="xMidYMid meet">
<metadata>
Created by potrace 1.11, written by Peter Selinger 2001-2013
</metadata>
<g transform="translate(0.000000,260.000000) scale(0.100000,-0.100000)"
fill="#000000" stroke="none">
<path d="M1167 2585 c-111 -28 -218 -92 -298 -179 -46 -49 -100 -151 -118
-224 -18 -70 -28 -312 -13 -312 4 0 9 -11 10 -24 7 -89 126 -367 206 -481 25
-36 40 -65 33 -65 -7 0 -31 -18 -52 -41 -22 -22 -78 -60 -125 -83 -120 -61
-283 -147 -295 -156 -5 -4 -55 -31 -110 -60 -124 -66 -224 -128 -248 -155 -37
-41 -85 -164 -103 -262 -2 -13 -6 -35 -9 -50 -22 -122 -33 -218 -41 -371 l-7
-122 1301 0 1300 0 -3 83 c-4 86 -14 215 -20 257 -2 14 -6 48 -10 75 -21 178
-75 344 -128 392 -54 49 -337 210 -637 362 -47 24 -105 63 -130 87 -25 24 -51
44 -58 44 -7 0 8 29 33 64 78 110 205 404 205 476 0 10 5 22 10 25 12 8 11
194 -2 269 -34 199 -177 366 -370 433 -89 31 -236 39 -321 18z"/>
</g>
</svg>
